<?xml version="1.0" encoding="UTF-8"?>
<svg id="Layer_2" data-name="Layer 2" xmlns="http://www.w3.org/2000/svg" xmlns:xlink="http://www.w3.org/1999/xlink" viewBox="0 0 263.41 48.19">
  <defs>
    <style>
      .cls-1 {
        fill: url(#linear-gradient-2);
      }

      .cls-2 {
        fill: url(#linear-gradient);
      }

      .cls-3, .cls-4, .cls-5 {
        fill: none;
        font-family: Montserrat-ExtraBoldItalic, Montserrat;
        font-size: 41.26px;
        font-style: italic;
        font-weight: 700;
      }

      .cls-4 {
        letter-spacing: .03em;
      }

      .cls-5 {
        letter-spacing: -.01em;
      }

      .cls-6 {
        letter-spacing: -.02em;
      }

      .cls-7 {
        fill: #fff;
        font-family: Montserrat-Black, Montserrat;
        font-size: 38.36px;
        font-weight: 800;
      }
    </style>
    <linearGradient id="linear-gradient" x1="61.6" y1="2.39" x2="61.6" y2="41.25" gradientUnits="userSpaceOnUse">
      <stop offset="0" stop-color="#6c5bff"/>
      <stop offset="1" stop-color="#3014a4"/>
    </linearGradient>
    <linearGradient id="linear-gradient-2" x1="244.71" y1="-.12" x2="245.01" y2="45.76" xlink:href="#linear-gradient"/>
  </defs>
  <g id="OBJECTS">
    <g>
      <g>
        <text transform="translate(0 37.13)"><tspan><tspan class="cls-3" x="0" y="0">&lt;</tspan><tspan class="cls-4" x="25.13" y="0">/</tspan><tspan class="cls-5" x="43.49" y="0">W</tspan><tspan class="cls-3" x="91.72" y="0">E</tspan><tspan class="cls-7" x="119.45" y="0"> </tspan></tspan></text>
        <g>
          <path class="cls-2" d="M24.26,18.35l-14.11,4.66,12.21,4.66-1.11,5.69L2.43,25.86l1.28-6.35,21.83-7.51-1.28,6.35Z"/>
          <path class="cls-2" d="M41.67,2.39h7.22l-21.17,38.87h-7.22L41.67,2.39Z"/>
          <path class="cls-2" d="M95.23,8.25l-15.14,28.88h-8.75l-2.1-17.41-9.2,17.41h-8.79l-3.55-28.88h8.05l2.23,18.44,9.74-18.44h7.55l2.06,18.69,9.82-18.69h8.09Z"/>
          <path class="cls-2" d="M104.92,14.56l-.95,4.87h12.83l-1.2,6.11h-12.87l-1.03,5.28h15.14l-1.32,6.31h-23.15l5.78-28.88h22.61l-1.28,6.31h-14.56Z"/>
        </g>
      </g>
      <path class="cls-1" d="M256.71,0h-30.35v46.06h30.35c3.7,0,6.71-3,6.71-6.71V6.71c0-3.7-3-6.71-6.71-6.71ZM259.05,25.33h-1.56c-1.24,0-2.02.69-2.02,2.2v9.46c0,4.87-2.66,7.49-7.86,7.49h-2.3v-4.59h.97c2.34,0,3.44-1.29,3.44-3.49v-8.73c0-2.85.83-4.09,2.66-4.69-1.84-.6-2.66-1.84-2.66-4.69v-8.73c0-2.2-1.1-3.49-3.44-3.49h-.97V1.49h2.3c5.19,0,7.86,2.62,7.86,7.49v9.46c0,1.52.78,2.2,2.02,2.2h1.56v4.69Z"/>
      <text class="cls-7" transform="translate(123.45 36.13)"><tspan class="cls-6" x="0" y="0">C</tspan><tspan x="27.96" y="0">ODE</tspan></text>
    </g>
  </g>
</svg>