<?xml version="1.0" encoding="UTF-8"?><svg id="Layer_1" xmlns="http://www.w3.org/2000/svg" xmlns:xlink="http://www.w3.org/1999/xlink" viewBox="0 0 669.7 750.12"><defs><style>.cls-1{clip-path:url(#clippath);}.cls-2{fill:none;}.cls-2,.cls-3,.cls-4,.cls-5,.cls-6,.cls-7,.cls-8{stroke-width:0px;}.cls-3{fill:url(#linear-gradient);}.cls-9{font-family:Raleway-Light, Raleway;font-size:44.4px;font-weight:300;}.cls-9,.cls-10{fill:#fff;}.cls-11{letter-spacing:.15em;}.cls-10{font-family:Raleway-Black, Raleway;font-size:196.41px;font-weight:800;letter-spacing:-.03em;}.cls-4{fill:url(#linear-gradient-4);}.cls-5{fill:url(#linear-gradient-2);}.cls-6{fill:url(#linear-gradient-3);}.cls-7{fill:url(#linear-gradient-5);}.cls-8{fill:url(#linear-gradient-6);}.cls-12{letter-spacing:.18em;}</style><linearGradient id="linear-gradient" x1="227.31" y1="75.13" x2="592.95" y2="75.13" gradientUnits="userSpaceOnUse"><stop offset="0" stop-color="#fed208"/><stop offset="1" stop-color="#f15822"/></linearGradient><linearGradient id="linear-gradient-2" x1="226.66" y1="96.55" x2="553.16" y2="96.55" gradientUnits="userSpaceOnUse"><stop offset="0" stop-color="#080a0b" stop-opacity=".4"/><stop offset=".27" stop-color="#1a1b1c" stop-opacity=".36"/><stop offset=".43" stop-color="#232324" stop-opacity=".25"/><stop offset="1" stop-color="#e5e5e5" stop-opacity="0"/></linearGradient><linearGradient id="linear-gradient-3" x1="215.2" y1="182.62" x2="474.66" y2="182.62" gradientUnits="userSpaceOnUse"><stop offset="0" stop-color="#70c282"/><stop offset=".18" stop-color="#70c282"/><stop offset=".73" stop-color="#51b169"/></linearGradient><linearGradient id="linear-gradient-4" x1="215.2" y1="202.84" x2="429.77" y2="202.84" gradientUnits="userSpaceOnUse"><stop offset="0" stop-color="#141514" stop-opacity=".6"/><stop offset=".14" stop-color="#141514" stop-opacity=".6"/><stop offset="1" stop-color="#e5e5e5" stop-opacity="0"/></linearGradient><linearGradient id="linear-gradient-5" x1="174.12" y1="283.66" x2="607.89" y2="283.66" gradientUnits="userSpaceOnUse"><stop offset=".18" stop-color="#40bbea"/><stop offset=".52" stop-color="#67778e"/><stop offset=".89" stop-color="#ef3f3f"/><stop offset="1" stop-color="#ef3f3f"/></linearGradient><clipPath id="clippath"><path class="cls-2" d="M608.13,407.9l-2.28-3.22c-.15-.24-.3-.48-.47-.71-.07-.1-.16-.19-.24-.3l-.13-.18v.02c-.26-.32-.51-.64-.77-.95-22.1-25.72-44.19-51.43-66.29-77.15-28.18,26.76-68.04,40.76-106.76,37.49-38.72-3.27-75.67-23.76-98.96-54.87-14.24-19.03-23.36-41.46-29.71-64.36-9.36-33.72-13.48-70-32.94-99.09-10.16-15.18-24.42-27.47-40.66-35.77-8.12-4.15-16.76-7.32-25.65-9.37-7.29-1.68-20.39-4.25-29.15-4.45,4.1,12.52,11.48,26.2,14.13,39.33,2.64,13.09,3.87,26.43,4.56,39.75,1.43,27.41.52,54.99,3.98,82.27,11.18,88.2,73.53,168.1,156.47,200.11,82.94,32.01,182.97,14.63,250.04-43.72.45-.39.9-.8,1.32-1.24h0s3.5-3.61,3.5-3.61Z"/></clipPath><linearGradient id="linear-gradient-6" x1="184.53" y1="350.9" x2="397.18" y2="356.12" gradientUnits="userSpaceOnUse"><stop offset=".59" stop-color="#3578bd"/><stop offset="1" stop-color="#2f5c98"/></linearGradient></defs><path class="cls-3" d="M227.31,97.56s155.76-196.33,365.64-31.96l-72.55,84.66s-40.77-48.14-118.71-37.7c-3.75-2.84-7.64-5.52-11.54-8.15-8.79-5.92-17.84-11.49-27.21-16.45-7.49-3.96-15.17-7.64-23.21-10.33s-16.41-3.87-24.89-4.33c-16.54-.89-33.06-.51-48.82,5.33-3.37,1.25-6.69,2.62-9.97,4.09-.15.07-.31.14-.46.21-9.68,4.35-19.05,9.39-28.27,14.63Z"/><path class="cls-5" d="M255.4,82.72c3.28-1.46,6.6-2.84,9.97-4.09,15.76-5.84,32.28-6.22,48.82-5.33,8.48.46,16.82,1.64,24.89,4.33,8.05,2.69,15.73,6.36,23.21,10.33,9.37,4.96,18.42,10.53,27.21,16.45,3.9,2.63,7.79,5.31,11.54,8.15,77.95-10.44,118.71,37.7,118.71,37.7l33.41-38.99h0s-161.91-144.38-326.5-13.71c9.22-5.24,18.59-10.28,28.27-14.63.15-.07.31-.14.46-.21Z"/><path class="cls-6" d="M332.79,50.99c-82.19,0-117.59,62.24-117.59,62.24,18.73.33,72.59,43.05,83.02,108.28,10.44,65.23,26.96,92.73,26.96,92.73-14.35-42.18-19.13-88.71,13.05-133.93,24.69-34.7,65.49-53.32,91.54-61.88,7.91-2.6,14.47-4.28,18.8-5.19,18.59-3.91,26.09-3.91,26.09-3.91-55.12-8.15-59.68-58.33-141.87-58.33Z"/><path class="cls-4" d="M215.2,113.24c18.73.33,72.59,43.05,83.02,108.28,10.44,65.23,26.96,92.73,26.96,92.73-14.35-42.18-19.13-88.71,13.05-133.93,24.69-34.7,65.49-53.32,91.54-61.88-29.42-.56-59.34-8.07-116.12-22.8-60.34-15.65-98.45,17.61-98.45,17.61Z"/><text class="cls-10" transform="translate(190.66 668.26)"><tspan x="0" y="0">Cielo</tspan></text><text class="cls-9" transform="translate(343.24 740.22)"><tspan class="cls-12" x="0" y="0">Digita</tspan><tspan class="cls-11" x="163.76" y="0">l</tspan></text><path class="cls-7" d="M607.89,407.9l-2.28-3.22c-.15-.24-.3-.48-.47-.71-.07-.1-.16-.19-.24-.3l-.13-.18v.02c-.26-.32-.51-.64-.77-.95-22.1-25.72-44.19-51.43-66.29-77.15-28.18,26.76-68.04,40.76-106.76,37.49-38.72-3.27-75.67-23.76-98.96-54.87-14.24-19.03-23.36-41.46-29.71-64.36-9.36-33.72-13.48-70-32.94-99.09-10.16-15.18-24.42-27.47-40.66-35.77-8.12-4.15-16.76-7.32-25.65-9.37-7.29-1.68-20.45-4.38-28.92-4.45,4.1,12.52,11.25,26.2,13.89,39.33,2.64,13.09,3.87,26.43,4.56,39.75,1.43,27.41.52,54.99,3.98,82.27,11.18,88.2,73.53,168.1,156.47,200.11,82.94,32.01,182.97,14.63,250.04-43.72.45-.39.9-.8,1.32-1.24h0s3.5-3.61,3.5-3.61Z"/><g class="cls-1"><g id="Ljzkbm"><path class="cls-8" d="M73.09,202.22c-8.08,1.64-14.32,7.16-21.69,10.31-8.81,3.76-17.41,8.12-27.63,7.77,23.52-14.57,40.85-37.92,68.05-46.31-21.3-17.17-44.06-17.87-68.24-5.37,3.26-9.81,7.39-12.98,27.11-21.57-4.61-6.99-10.18-13.39-12.55-21.58-1.07-3.69-4.73-3.73-7.46-4.85-9.47-3.9-19.04-7.55-28.55-11.35-.47-.19-.75-.86-2.12-2.52,23.17,2.59,45.2,5.12,67.24,7.5,22.19,2.39,42.76,9.78,62.64,19.82-26.33-20.47-54.14-38.58-82.46-56.08,28.89,7.45,54.58,21.55,79.38,37.99-14.29-14.01-29.92-26.59-38.31-45.49,12.6,13.47,27.44,24.17,42.71,34.67-9.27-10.56-18.77-20.93-27.74-31.74-4.89-5.89-11.21-10.84-13.57-18.6h1.87c14.61,14.12,32.35,24.32,47.28,38-5.22-9.62-10.44-19.24-15.66-28.86.56-.33,1.12-.67,1.68-1,10.83,14.51,21.65,29.02,32.48,43.54-4.34-12.46-10.73-24.16-8.65-38.21,9.29,19.86,25.43,34.11,40.17,49.75-5.14-11.46-10.28-22.92-15.42-34.39,16.26,11.16,27.43,26.03,36.81,42.51-.96-15.27-5.53-29.17-13.55-43.16,11.25,6.3,19.33,16.88,25.54,32.17,8.7,21.44,9.88,44.1,11.26,66.77.89,14.67,1.31,29.46,6.98,43.4-.66-47.05-6.63-93.37-20.19-139.52,1.65,1.02,2.27,1.26,2.68,1.69.64.67,1.16,1.45,1.68,2.22,27.54,40.94,36.08,85.27,23.6,133.26-2.98,11.46-3.24,11.4,7.01,18.54.41-26.17,5.11-52.03,2.1-78.14-3-26.03-10.44-50.76-21.77-74.46,6.11,4.88,9.97,11.2,13.87,17.47,2.78,4.47,5.11,9.18,8.86,13.07,11.45,11.88,18.95,26.04,23.59,41.8,9.51,32.32,5.29,64.21-4.67,95.35-3.62,11.31-.49,18.71,7.59,28.28,1.61-27.14,3.51-52.4,4.51-77.7,1.02-25.88-3.04-51.07-13.31-75.15,22.65,22.82,30.54,51.12,31.05,82.3,6.52-22.99,7.55-45.72-1.76-69.67,21.97,20.55,32.09,69.77,25.71,120.34,21.73-22.17,14.91-48.54,12.38-74.45,6.77,10.89,13.4,22.15,14.53,34.75,1.55,17.27,1.23,34.74-2.3,51.99-5.8,28.27-17.86,54.2-29.41,80.34q-3.73,8.44,2.42,16.18c1.5-15.89,9.04-29.2,15.94-42.74,17.79-34.91,23.74-71.68,17.55-110.39-1.75-10.95-5.34-21.47-7.98-32.3,2.47,2.26,4.41,4.69,5.91,7.35,26.99,47.84,26.89,95.17-2.95,141.82-7.02,10.98-15.64,20.88-21.57,32.63-4.24,8.38-5.52,16.39.22,24.51,2.18,7.77,4.89,15.32,9.21,23.84,6.99-19.73,13.39-38.06,19.08-59.13-10.71,13.06-16.73,26.7-28.61,35.59,8.59-25.4,19.99-49.48,34.76-71.84,4.58-6.93,7.41-14.15,8.75-22.23,1.73-10.44,3.78-20.82,5.7-31.22.59.07,1.17.15,1.76.22.5,8.81.99,17.61,1.52,27.01q6.3-4.7,8.12-8.38c.46-.91-1.01-3.77,2.12-2.09,1.26.68,2.11.99,2.73,2.87,10.15,30.85,4.49,63.25,9.38,94.6.56,3.59-.19,7.43-.56,11.13-2.99,29.41-19.45,51.24-40.67,69.85-6.85,6.01-7.78,10.87-2.32,18.09,1.63-2.14,3.17-4.03,4.56-6.01,17.26-24.58,38.39-46.37,52.48-73.21v14.93c-7.34,27.11-26.42,45.06-47.77,61.24-10.49,7.95-10.62,8.7-3.39,21.47,7.58-22.98,34.53-29.46,42.39-54.56,4.71,15.45-.45,25.6-9.29,34-8.54,8.11-17.95,15.32-27.05,22.83-4.06,3.35-4.91,6.85-3.32,12.18,12.17,40.77,23.94,81.67,35.9,122.5,1.14,3.88,2.65,7.62,1.35,11.74h-7.46c-10.31-44.19-23.53-87.59-35.49-131.34-1.15-4.2-3.56-6.23-7.53-7.19-11.48-2.75-22.92-5.63-34.39-8.41-5.74-1.39-11.68-2.15-17.23-4.07-26.63-9.21-53.17-18.56-81.49-21.46-4.74-.49-9.63-2.19-13.53-5.69,34.67-8.39,83.66-5.84,142.21,7.41.57-8.72-3.87-12.65-11.98-14.37-10.42-2.2-20.92-3.01-31.5-3.1-36.69-.32-73.35-1.28-110.27-4.27,21.7-17.6,107.66-15.19,147.92,3.86.51-11.79-.93-13.48-11.68-14.78-38.27-4.65-76.57-9.08-115.01-12.15-19.22-1.53-38.47-2.36-57.59,2.48,14.6-13.25,33.09-15.21,52.56-17.4-17.1-15.3-33.71-29.59-51.85-42.31,18.24,2.99,35.24,10.01,53.75,11-24.1-8.96-46.19-21.72-70.23-34.49,10.7-1.78,18.99,2.33,27.76,2.7-8.95-5.24-17.45-10.81-25.6-16.95-4.76-3.58-9.35-3.1-14.02,1.4-6.74,6.5-12.11,13.91-17.05,21.85-.22-15.42,7.54-27.13,18.24-38.36-10-3.75-20.15-2.27-30.66-5.39,12.52-5.05,24.61-5.57,36.59-6.11,7.26-.32,13.89-1.82,20.68-4.48,37.76-14.77,75.9-14.1,114.13-1.68,2.66.86,5.29,1.81,7.95,2.66.17.05.48-.35,1.51-1.15-2.89-5.15-5.97-10.4-8.81-15.78-2.16-4.1-5.88-2.89-9.06-2.78-29.25,1.02-58.17,5.53-87.23,8.51-28.19,2.89-56.39,4.96-84.66,1.12-3.88-.53-7.71-1.17-12.02-3.74,62.92-9.76,124.61-22.1,188.16-8.95-2.35-10.65-8.43-14.8-18.23-15.58-28.15-2.23-55.84,2.61-83.7,4.77-32.84,2.55-65.64,5.75-98.87,5.62,11.18-6.09,23.36-9.42,35.64-12.15,12.73-2.83,25.58-5.16,38.45-7.26,12.6-2.05,25.35-2.74,38.12-2.66,13.06.09,26.13.06,39.18.55,13,.49,25.58,3.65,38.49,8.51-3.42-9.92-9.75-13.04-18.6-14.31-34.7-4.97-68.84-.38-103.03,4.7-27.93,4.15-55.84,8.51-84.36,7.68,31.14-12.25,62.98-21.89,96.35-25.59,33.35-3.69,66.25-2.33,98.65,12.37-4.82-9.5-10.51-13.7-20.05-14.82-36.19-4.24-72.25-9.11-108.54-1.14-15.02,3.3-28.74,9.89-42.7,15.97-11.48,5-22.92,10.29-38,11.67,18.46-12.07,34.91-22.82,51.37-33.58-19.72,3.35-38.11,10.38-56.75,16.88,21.55-20.77,47.55-32.85,76.28-39.86-25.45,1.04-49.48,7.19-73.77,19.88,7.7-13.31,19.94-18.09,29.32-26.12,7.92-2.5,15.72-5.45,23.77-7.41,34.54-8.41,68.31-3.21,101.81,6.2,3.86,1.08,7.62,3.3,12.19,2.42-1.51-3.4-3.99-4.45-6.78-5.21-23.38-6.35-46.93-12.15-71.3-12.03-21.15.1-41.92,2.87-59.76,15.95ZM298.49,324.72c-10.5-1.77-21.07-1.45-31.58-.6-33.11,2.68-66.19,5.84-99.45,2.85-5.53-.5-9.48,2.1-15.47,6.26,52.22,4.12,101.96-.27,152.66,1.38-1.5-3.22-2.4-5.47-3.59-7.55-.55-.96-1.7-1.58-2.59-2.37-.95-4.86-1.34-10.08-7.87-10.99-17-2.37-34.03-3.95-51.22-1.89,7.32,1.29,14.75,1.55,22.04,2.66,12.73,1.95,26.09,1.93,37.08,10.26ZM350.92,435.95c26.49-41.92,54.1-83.75,45.69-138.4-5.23,8.18-9.24,15.37-10.22,24.34-3.64,33.25-13.25,64.67-34.01,91.28-7.12,9.12-5.44,15.69-1.46,22.78ZM208.85,364.94c36.79,18.07,77.32,9.3,115.89,16.23.3-3.84-2.01-6.31-2.7-9.25-2.16-9.16-6.84-11.63-16.63-9.88-31.85,5.71-63.98,8.28-96.56,2.89ZM341.6,423.18c-1.9-5.49-3.6-9.19-4.43-13.08-1.35-6.3-4.92-7.44-10.76-6.38-29.1,5.26-58.38,7.83-88,5.03,32.77,12.87,67.95,7.07,103.2,14.43ZM239.93,351.52c25.07,2.31,50.15,4.61,76,6.99-1.77-4.08-3.65-7.34-4.61-10.85-2.42-8.82-7.46-10.11-15.97-8.05-18.3,4.44-36.8,8.21-55.42,11.9ZM333.42,400.5c-3.92-6.41-1.54-16.67-11.14-15.88-21.77,1.81-43.4,5.21-65.08,7.96.03.43.07.87.1,1.3,24.89,2.16,49.79,4.32,76.12,6.61ZM360.58,463.84c7.69-20.3,17.91-38.16,26.58-57-1.25-.27-1.59-.44-1.68-.35-6.77,6.83-13.92,13.34-20.19,20.6-15.27,17.69-14.31,12.18-4.71,36.75ZM128.26,149.27c-26.44-8.19-53.96-12.19-80.22-21.59,6.71,7.21,13.45,15.78,23.09,16.03,19.21.5,38.14,2.23,57.13,5.56ZM320.1,484.05c15.29,7.05,30.73,13.11,46.08,22.99-1.8-6.78-3.34-12.07-4.58-17.43-.91-3.94-3.04-5.66-7.14-5.61-11.45.14-22.91.05-34.36.05ZM308.83,429.59c.14.51.28,1.02.42,1.54,12.64,4.32,25.29,8.63,39.09,13.34-1.31-4.65-2.52-8.1-3.22-11.64-1.12-5.67-4.39-7.46-9.89-6.65-8.77,1.29-17.59,2.29-26.39,3.41ZM172.95,129.21c6.19,12.67,13.57,25.12,14.89,39.29.9,9.61,6.37,14.43,14.36,20.43-6.25-22.87-15.63-42.3-29.25-59.72ZM268.6,259.64v-44.74c-.93.03-1.85.06-2.78.1-.01,14.96-15.04,30.53,2.78,44.64ZM301.77,315.69c.97-18.12,6.54-33.79,9.79-50-4.62,8.67-7.78,18.03-12.77,26.28-5.09,8.4-4.78,15.26,2.98,23.73ZM329.12,308.75c-3.39,15.58-20.09,28.54-8.2,49.39,2.27-18.27,5.65-33.81,8.2-49.39ZM197.81,221.2c13.93,4.15,27.69,9.03,41.79,12.65-10.61-15.74-27.29-10.44-41.79-12.65ZM184.52,206.96c13.98,4.25,28.25,7.56,42.7,13.86-10.25-20.26-28.3-10.98-42.7-13.86ZM170.72,143.08c.44,13.08,2.25,23.52,15.2,29.51-3.35-11-8.56-19.8-15.2-29.51ZM208.35,174.3c-5.59,15.75-4.81,18.64,7.67,26.63-2.7-9.38-5.02-17.42-7.67-26.63ZM311.7,335.27c-.24-10.6.37-19.47,2.33-29.25-10.78,14.22-11.1,17.49-2.33,29.25ZM143.71,166.07c12.35,2.54,24.69,5.09,37.04,7.63-10.76-10.77-24.73-5.35-37.04-7.63ZM171.79,178.8c8.62,3.88,16.17,7.27,25.57,11.5-6.78-10.46-13.95-14.8-25.57-11.5ZM229.47,213.8c-2.6-5.93-5.21-11.87-7.91-18.03-6.68,10.09,1.75,13.78,7.91,18.03ZM292.35,298.37c.81-8.07,1.45-14.46,2.09-20.85-3.19,6.14-10.33,11.7-2.09,20.85Z"/></g></g></svg>