<svg xmlns="http://www.w3.org/2000/svg" viewBox="0 0 394 80" fill="white">
  <path d="M261.919 0.0330722H330.547V12.7H303.323V79.339H289.71V12.7H261.919V0.0330722Z"/>
  <path d="M149.052 0.0330722V12.7H94.0421V33.0772H138.281V45.7441H94.0421V66.6721H150.143V79.339H80.43V0.0330722H149.052Z"/>
  <path d="M183.32 0.0330722L210.652 36.7H210.91L238.242 0.0330722H255.065L218.652 47.0441L256.142 79.339H238.934L210.91 49.2951L210.652 49.0381L182.628 79.339H165.42L202.91 47.0441L166.497 0.0330722H183.32Z"/>
  <path d="M0 0.0330722H13.6133L66.1834 56.3721V0.0330722H79.7967V79.339H66.1834L13.6133 23.0002V79.339H0V0.0330722Z"/>
  <path fill-rule="evenodd" clip-rule="evenodd" d="M356.314 79.339H342.701V0.0330722H387.861C392.677 0.0330722 394 3.70007 394 7.36907V28.7371C394 33.5231 391.399 37.7001 387.169 37.7001H356.314V79.339ZM356.314 12.7V27.0331H380.545V12.7H356.314Z"/>
</svg>
